<svg id="Calque_1" data-name="Calque 1" xmlns="http://www.w3.org/2000/svg" viewBox="0 0 22 22"><defs><style>.cls-1{fill:#9be1e5;}</style></defs><path class="cls-1" d="M11.65,22h-10A1.6,1.6,0,0,1,0,20.72a1.34,1.34,0,0,1,0-.35V1.64A1.6,1.6,0,0,1,1.1.08,1.84,1.84,0,0,1,1.63,0H20.37A1.61,1.61,0,0,1,22,1.35c0,.1,0,.19,0,.28V20.37A1.61,1.61,0,0,1,20.65,22l-.29,0H14.64l-.06-.5V13l.5-.06h2.29l.3-2.32h-3l-.06-.51V8a2.07,2.07,0,0,1,.23-1,1.46,1.46,0,0,1,.85-.7,3,3,0,0,1,.95-.13h1.23v-2l-.38,0c-.55,0-1.09,0-1.63,0h0a4.55,4.55,0,0,0-1.53.24,3.13,3.13,0,0,0-1.37,1,3.38,3.38,0,0,0-.6,1.2,4.83,4.83,0,0,0-.17,1.28V10.3l-.26.32H9.4V13h2.44l.31.28v8.71ZM1.63.88a.66.66,0,0,0-.25,0,.72.72,0,0,0-.5.72V20.37a.7.7,0,0,0,0,.16.72.72,0,0,0,.74.59h9.64v-7.3H8.59l-.07-.51V9.81L9,9.75h2.25v-2a5.7,5.7,0,0,1,.2-1.52,4.15,4.15,0,0,1,.77-1.51A3.8,3.8,0,0,1,14,3.49a5.08,5.08,0,0,1,1.82-.3c.58,0,1.14,0,1.7.05l.74.06.42,0,0,.49V7l-.5.06h-1.6a2,2,0,0,0-.68.09.52.52,0,0,0-.35.27,1.2,1.2,0,0,0-.13.61V9.75h2.85l.31.31-.18,1.48-.28,2.22-.46.07H15.46v7.3h5a.73.73,0,0,0,.63-.74V1.63a.57.57,0,0,0,0-.13.72.72,0,0,0-.74-.62Z"/></svg>