<svg id="Calque_1" data-name="Calque 1" xmlns="http://www.w3.org/2000/svg" viewBox="0 0 22 22"><defs><style>.cls-1{fill:#797c7b;}</style></defs><path class="cls-1" d="M11,16.44A5.44,5.44,0,1,1,16.44,11,5.45,5.45,0,0,1,11,16.44Zm0-9.88A4.44,4.44,0,1,0,15.44,11,4.44,4.44,0,0,0,11,6.56Z"/><path class="cls-1" d="M14.56,22H7.44A7.45,7.45,0,0,1,0,14.56V7.44A7.45,7.45,0,0,1,7.44,0h7.12A7.45,7.45,0,0,1,22,7.44v7.12A7.45,7.45,0,0,1,14.56,22ZM7.44,1A6.45,6.45,0,0,0,1,7.44v7.12A6.45,6.45,0,0,0,7.44,21h7.12A6.45,6.45,0,0,0,21,14.56V7.44A6.45,6.45,0,0,0,14.56,1Z"/><path class="cls-1" d="M16.94,6.91a1.85,1.85,0,1,1,1.84-1.85A1.85,1.85,0,0,1,16.94,6.91Zm0-2.69a.85.85,0,1,0,.84.84A.85.85,0,0,0,16.94,4.22Z"/></svg>