<?xml version="1.0" encoding="utf-8"?>
<!-- Generator: Adobe Illustrator 16.0.0, SVG Export Plug-In . SVG Version: 6.00 Build 0)  -->
<!DOCTYPE svg PUBLIC "-//W3C//DTD SVG 1.1//EN" "http://www.w3.org/Graphics/SVG/1.1/DTD/svg11.dtd">
<svg version="1.1" id="Calque_1" xmlns="http://www.w3.org/2000/svg" xmlns:xlink="http://www.w3.org/1999/xlink" x="0px" y="0px"
	 width="20.916px" height="22.477px" viewBox="0 0 20.916 22.477" enable-background="new 0 0 20.916 22.477" xml:space="preserve">
<g>
	<path fill="none" stroke="#797C7B" stroke-width="0.5" stroke-linecap="round" stroke-miterlimit="10" d="M19.953,13.101
		c-0.298,1.542-2.685,3.229-5.423,3.556c-1.428,0.171-2.834,0.326-4.333,0.258c-2.452-0.111-4.387-0.584-4.387-0.584
		c0,0.239,0.015,0.465,0.044,0.678c0.319,2.42,2.399,2.565,4.37,2.634c1.99,0.066,3.76-0.49,3.76-0.49l0.082,1.799
		c0,0-1.394,0.746-3.871,0.883c-1.366,0.076-3.063-0.036-5.041-0.557c-4.287-1.136-5.023-5.705-5.136-10.342
		c-0.035-1.377-0.013-2.675-0.013-3.76c0-4.741,3.106-6.13,3.106-6.13C4.679,0.325,7.367,0.023,10.161,0h0.069
		c2.794,0.022,5.482,0.326,7.05,1.045c0,0,3.104,1.39,3.104,6.13C20.387,7.174,20.427,10.672,19.953,13.101"/>
	<path fill="none" stroke="#797C7B" stroke-width="0.5" stroke-miterlimit="10" d="M16.724,7.542v5.741H14.45V7.711
		c0-1.175-0.495-1.771-1.483-1.771c-1.094,0-1.641,0.708-1.641,2.105v3.049H9.065V8.046c0-1.398-0.548-2.105-1.641-2.105
		c-0.989,0-1.483,0.597-1.483,1.771v5.572H3.667V7.542c0-1.173,0.299-2.104,0.898-2.795c0.619-0.688,1.43-1.043,2.436-1.043
		c1.164,0,2.045,0.447,2.627,1.342l0.567,0.95l0.566-0.95c0.583-0.895,1.465-1.342,2.629-1.342c1.006,0,1.814,0.354,2.436,1.043
		C16.423,5.437,16.724,6.368,16.724,7.542"/>
</g>
</svg>
