<?xml version="1.0" encoding="utf-8"?>
<!-- Generator: Adobe Illustrator 16.0.0, SVG Export Plug-In . SVG Version: 6.00 Build 0)  -->
<!DOCTYPE svg PUBLIC "-//W3C//DTD SVG 1.1//EN" "http://www.w3.org/Graphics/SVG/1.1/DTD/svg11.dtd">
<svg version="1.1" id="Calque_1" xmlns="http://www.w3.org/2000/svg" xmlns:xlink="http://www.w3.org/1999/xlink" x="0px" y="0px"
	 width="20.916px" height="22.477px" viewBox="-0.249 2.377 20.916 22.477" enable-background="new -0.249 2.377 20.916 22.477"
	 xml:space="preserve">
<g>
	<path fill="none" stroke="#9BE1E5" stroke-width="0.5" stroke-linecap="round" stroke-miterlimit="10" d="M19.951,15.782
		c-0.298,1.542-2.684,3.229-5.422,3.556c-1.429,0.171-2.834,0.326-4.333,0.258c-2.452-0.111-4.387-0.584-4.387-0.584
		c0,0.239,0.015,0.465,0.044,0.678c0.319,2.42,2.399,2.565,4.37,2.633c1.99,0.067,3.76-0.49,3.76-0.49l0.082,1.799
		c0,0-1.393,0.746-3.87,0.883c-1.366,0.076-3.063-0.036-5.041-0.557c-4.287-1.136-5.023-5.705-5.136-10.342
		c-0.035-1.377-0.013-2.674-0.013-3.759c0-4.742,3.106-6.13,3.106-6.13c1.566-0.72,4.254-1.023,7.048-1.045h0.069
		c2.794,0.022,5.482,0.326,7.05,1.045c0,0,3.105,1.389,3.105,6.13C20.385,9.856,20.425,13.354,19.951,15.782"/>
	<path fill="none" stroke="#9BE1E5" stroke-width="0.5" stroke-miterlimit="10" d="M16.721,10.224v5.741h-2.273v-5.572
		c0-1.175-0.495-1.771-1.483-1.771c-1.094,0-1.641,0.708-1.641,2.106v3.049H9.063v-3.049c0-1.399-0.548-2.106-1.641-2.106
		c-0.989,0-1.483,0.597-1.483,1.771v5.572H3.665v-5.741c0-1.173,0.299-2.105,0.898-2.795c0.619-0.689,1.43-1.043,2.436-1.043
		c1.164,0,2.045,0.447,2.627,1.342l0.567,0.95l0.566-0.95c0.583-0.895,1.464-1.342,2.628-1.342c1.006,0,1.815,0.354,2.436,1.043
		C16.421,8.118,16.721,9.05,16.721,10.224"/>
</g>
</svg>
