<?xml version="1.0" encoding="utf-8"?>
<!-- Generator: Adobe Illustrator 16.0.0, SVG Export Plug-In . SVG Version: 6.00 Build 0)  -->
<!DOCTYPE svg PUBLIC "-//W3C//DTD SVG 1.1//EN" "http://www.w3.org/Graphics/SVG/1.1/DTD/svg11.dtd">
<svg version="1.1" id="Calque_1" xmlns="http://www.w3.org/2000/svg" xmlns:xlink="http://www.w3.org/1999/xlink" x="0px" y="0px"
	 width="22px" height="22px" viewBox="0 0 22 22" enable-background="new 0 0 22 22" xml:space="preserve">
<g id="Calque_1_1_">
	<g>
		<path fill="none" stroke="#797C7B" stroke-linecap="round" stroke-linejoin="round" stroke-miterlimit="1" d="M17.16,1.037
			 M17.16,0.563H4.921c-2.414,0-4.372,1.954-4.372,4.365v12.22c0,2.408,1.958,4.363,4.372,4.363H17.16
			c2.414,0,4.37-1.955,4.37-4.363V4.927C21.53,2.516,19.574,0.563,17.16,0.563L17.16,0.563z"/>
	</g>
</g>
<g id="in">
	
		<rect x="4.643" y="7.362" fill="none" stroke="#797C7B" stroke-width="0.75" stroke-miterlimit="10" width="2.74" height="10.116"/>
	<path fill="none" stroke="#797C7B" stroke-width="0.75" stroke-miterlimit="10" d="M6.013,6.196c-0.882,0-1.599-0.728-1.599-1.623
		s0.717-1.622,1.599-1.622s1.599,0.727,1.599,1.622C7.61,5.471,6.896,6.196,6.013,6.196z"/>
	<path fill="none" stroke="#797C7B" stroke-width="0.75" stroke-miterlimit="10" d="M18.344,17.478h-2.739v-5.151
		c0-3.099-3.655-2.863-3.655,0v5.151h-2.74V7.361h2.74v1.624c1.276-2.379,6.396-2.554,6.396,2.276L18.344,17.478L18.344,17.478z"/>
</g>
<rect fill="none" width="22" height="22"/>
</svg>
