<svg id="Calque_1" data-name="Calque 1" xmlns="http://www.w3.org/2000/svg" xmlns:xlink="http://www.w3.org/1999/xlink" viewBox="0 0 130.28 70.51"><defs><style>.cls-1{fill:none;}.cls-2{fill:#818180;}.cls-3{clip-path:url(#clip-path);}.cls-4{fill:#1c1c1b;}</style><clipPath id="clip-path"><rect class="cls-1" width="130.27" height="70.51"/></clipPath></defs><path class="cls-2" d="M39.39,64.6a.14.14,0,0,1,.14.15v1.57a.14.14,0,0,1-.14.14H35.76a.14.14,0,0,1-.14-.14V64.75a.14.14,0,0,1,.14-.15Z"/><path class="cls-2" d="M4.7,63.79c0-1.09-.31-1.4-1-1.4H3.26c-.06,0-.08,0-.08.08V65.1c0,.06,0,.09.08.09h.41c.72,0,1-.31,1-1.4Zm-3.24,6.6a.14.14,0,0,1-.14-.14V60.9a.13.13,0,0,1,.14-.14H3.73c1.75,0,2.83.83,2.83,3s-1.12,3-2.83,3H3.26c-.06,0-.08,0-.08.08v3.35a.14.14,0,0,1-.15.14Z"/><path class="cls-2" d="M11.12,67l-.61-3.34h0L9.83,67ZM9.49,60.9c0-.09.07-.14.16-.14h1.67a.14.14,0,0,1,.15.14l2.07,9.35a.11.11,0,0,1-.11.14H11.86a.15.15,0,0,1-.16-.14l-.31-1.75H9.56l-.32,1.75a.15.15,0,0,1-.16.14H7.51a.1.1,0,0,1-.11-.14L9.49,60.9Z"/><path class="cls-2" d="M18.78,63.7c0-1-.31-1.31-1-1.31h-.41c-.06,0-.09,0-.09.08v2.46a.08.08,0,0,0,.09.09h.41c.72,0,1-.3,1-1.32Zm.34,6.69c-.08,0-.12,0-.15-.12l-1.09-3.65h-.54c-.06,0-.09,0-.09.08v3.55a.13.13,0,0,1-.14.14H15.54a.14.14,0,0,1-.14-.14V60.9a.13.13,0,0,1,.14-.14h2.29c1.72,0,2.82.8,2.82,2.94a2.8,2.8,0,0,1-1.07,2.47l1.31,4.08c0,.07,0,.14-.07.14Z"/><path class="cls-2" d="M22.9,60.9a.13.13,0,0,1,.15-.14h1.57a.13.13,0,0,1,.14.14v9.35a.14.14,0,0,1-.14.14H23.05a.14.14,0,0,1-.15-.14V60.9Z"/><path class="cls-2" d="M29.46,70.51a2.32,2.32,0,0,1-2.6-2.57c0-.09,0-.14.11-.16l1.52-.24c.09,0,.15,0,.15.11,0,.9.28,1.25.84,1.25s.76-.27.76-1.15-.17-1.14-.89-1.43l-.58-.22a2.51,2.51,0,0,1-1.83-2.79c0-1.75.84-2.68,2.55-2.68A2.26,2.26,0,0,1,32,63a.15.15,0,0,1-.13.16l-1.44.23c-.09,0-.16,0-.16-.12,0-.69-.25-1-.76-1s-.74.32-.74,1,.16.95.91,1.24l.58.23c1.32.51,1.82,1.22,1.82,2.85,0,2-.75,3-2.66,3Z"/><path class="cls-2" d="M46.77,67l-.61-3.34h0L45.48,67ZM45.14,60.9c0-.09.07-.14.16-.14H47a.14.14,0,0,1,.15.14l2.07,9.35c0,.08,0,.14-.11.14H47.5a.15.15,0,0,1-.15-.14L47,68.5H45.21l-.32,1.75a.15.15,0,0,1-.16.14H43.16a.11.11,0,0,1-.12-.14l2.1-9.35Z"/><path class="cls-2" d="M50.82,67.78V60.9a.13.13,0,0,1,.14-.14h1.57a.13.13,0,0,1,.15.14V68c0,.51.26.83.73.83a.73.73,0,0,0,.75-.83V60.9a.13.13,0,0,1,.14-.14h1.58a.13.13,0,0,1,.14.14v6.88a2.6,2.6,0,1,1-5.2,0Z"/><path class="cls-2" d="M60.31,68.82h.41c.78,0,1.05-.32,1.05-1.34s-.27-1.3-1.05-1.3h-.41a.08.08,0,0,0-.09.09v2.46a.08.08,0,0,0,.09.09Zm.41-4.11c.72,0,1-.24,1-1.19s-.23-1.19-1-1.19h-.41c-.06,0-.09,0-.09.08v2.21a.08.08,0,0,0,.09.09ZM58.37,60.9a.13.13,0,0,1,.14-.14H61c1.78,0,2.57.82,2.57,2.5,0,1.18-.39,1.77-1.1,2.09v0c.71.22,1.22.9,1.22,2.18,0,2.13-1,2.84-2.85,2.84H58.51a.14.14,0,0,1-.14-.14V60.9Z"/><path class="cls-2" d="M65.75,60.9a.13.13,0,0,1,.14-.14H70.1a.13.13,0,0,1,.14.14v1.39a.14.14,0,0,1-.14.14H67.69c-.06,0-.09,0-.09.08v2.1c0,.06,0,.08.09.08h2.08a.14.14,0,0,1,.14.15v1.38a.13.13,0,0,1-.14.14H67.69a.08.08,0,0,0-.09.09v2.18a.08.08,0,0,0,.09.09H70.1a.13.13,0,0,1,.14.14v1.39a.14.14,0,0,1-.14.14H65.89a.13.13,0,0,1-.14-.14V60.9Z"/><path class="cls-2" d="M75.73,63.7c0-1-.31-1.31-1-1.31h-.41c-.06,0-.09,0-.09.08v2.46a.08.08,0,0,0,.09.09h.41c.72,0,1-.3,1-1.32Zm.34,6.69c-.08,0-.12,0-.15-.12l-1.09-3.65h-.54c-.06,0-.09,0-.09.08v3.55a.13.13,0,0,1-.14.14H72.49a.13.13,0,0,1-.14-.14V60.9a.13.13,0,0,1,.14-.14h2.29c1.72,0,2.82.8,2.82,2.94a2.8,2.8,0,0,1-1.07,2.47l1.31,4.08c0,.07,0,.14-.07.14Z"/><path class="cls-2" d="M81.24,70.39c-.08,0-.12-.06-.15-.14L79.17,60.9c0-.09,0-.14.12-.14h1.6a.14.14,0,0,1,.15.14L82,67h0L83,60.9a.14.14,0,0,1,.15-.14h1.58c.1,0,.14.05.11.14l-1.93,9.35c0,.08,0,.14-.14.14Z"/><path class="cls-2" d="M86.77,60.9a.13.13,0,0,1,.14-.14h1.57a.13.13,0,0,1,.14.14v9.35a.13.13,0,0,1-.14.14H86.91a.13.13,0,0,1-.14-.14V60.9Z"/><path class="cls-2" d="M91,60.9a.13.13,0,0,1,.14-.14h1.57a.13.13,0,0,1,.15.14v7.73c0,.06,0,.09.08.09h2.44a.13.13,0,0,1,.14.14v1.39a.14.14,0,0,1-.14.14H91.14a.14.14,0,0,1-.14-.14V60.9Z"/><path class="cls-2" d="M97.53,60.9a.13.13,0,0,1,.14-.14h1.57a.13.13,0,0,1,.15.14v7.73c0,.06,0,.09.08.09h2.44a.13.13,0,0,1,.14.14v1.39a.14.14,0,0,1-.14.14H97.67a.14.14,0,0,1-.14-.14V60.9Z"/><path class="cls-2" d="M104.06,60.9a.13.13,0,0,1,.14-.14h1.57a.13.13,0,0,1,.15.14v9.35a.14.14,0,0,1-.15.14H104.2a.14.14,0,0,1-.14-.14V60.9Z"/><path class="cls-2" d="M108.29,60.9a.13.13,0,0,1,.15-.14h4.2a.13.13,0,0,1,.14.14v1.39a.13.13,0,0,1-.14.14h-2.41a.07.07,0,0,0-.08.08v2.1c0,.06,0,.08.08.08h2.09a.14.14,0,0,1,.14.15v1.38a.13.13,0,0,1-.14.14h-2.09s-.08,0-.08.09v2.18c0,.06,0,.09.08.09h2.41a.13.13,0,0,1,.14.14v1.39a.13.13,0,0,1-.14.14h-4.2a.14.14,0,0,1-.15-.14V60.9Z"/><path class="cls-2" d="M118.28,63.7c0-1-.31-1.31-1-1.31h-.41c-.06,0-.09,0-.09.08v2.46a.08.08,0,0,0,.09.09h.41c.72,0,1-.3,1-1.32Zm.34,6.69a.14.14,0,0,1-.16-.12l-1.09-3.65h-.53c-.06,0-.09,0-.09.08v3.55a.14.14,0,0,1-.14.14H115a.14.14,0,0,1-.15-.14V60.9a.13.13,0,0,1,.15-.14h2.29c1.71,0,2.82.8,2.82,2.94a2.78,2.78,0,0,1-1.08,2.47l1.32,4.08c0,.07,0,.14-.07.14Z"/><g class="cls-3"><path class="cls-2" d="M124.72,70.51a2.32,2.32,0,0,1-2.6-2.57c0-.09,0-.14.11-.16l1.52-.24c.1,0,.15,0,.15.11,0,.9.29,1.25.84,1.25s.76-.27.76-1.15-.17-1.14-.89-1.43L124,66.1a2.51,2.51,0,0,1-1.83-2.79c0-1.75.84-2.68,2.55-2.68A2.26,2.26,0,0,1,127.3,63a.15.15,0,0,1-.13.16l-1.44.23c-.09,0-.16,0-.16-.12,0-.69-.25-1-.76-1s-.74.32-.74,1,.16.95.91,1.24l.58.23a2.55,2.55,0,0,1,1.83,2.85c0,2-.75,3-2.67,3Z"/><path class="cls-4" d="M105.33,4.21h20.84a.09.09,0,0,1,.09.09V14.37a.1.1,0,0,1-.1.09H112.48A.52.52,0,0,0,112,15v2.94a.52.52,0,0,0,.52.53h17.27a.53.53,0,0,0,.53-.53V.74a.53.53,0,0,0-.53-.53H105.33a.53.53,0,0,0-.53.53V3.68a.53.53,0,0,0,.53.53Z"/><path class="cls-4" d="M129.75,21.58H108.91a.09.09,0,0,1-.1-.09V11.42a.09.09,0,0,1,.1-.09H122.6a.52.52,0,0,0,.52-.52V7.86a.52.52,0,0,0-.52-.52H105.33a.52.52,0,0,0-.53.52v17.2a.52.52,0,0,0,.53.52h24.42a.52.52,0,0,0,.53-.52V22.11a.53.53,0,0,0-.53-.53Z"/><path class="cls-4" d="M6.39,34c.89,0,1.91.32,2,2.81a.56.56,0,0,0,.18.42.52.52,0,0,0,.47.11l2.95-.5a.55.55,0,0,0,.43-.67c-.22-4-2.35-6.12-6.18-6.12-3,0-5,1.36-5.8,3.93C.14,35,0,36.13,0,42.92s.14,7.9.48,9c.83,2.57,2.84,3.93,5.8,3.93,3.83,0,6-2.12,6.18-6.12A.54.54,0,0,0,12,49l-2.95-.51a.56.56,0,0,0-.47.12.54.54,0,0,0-.18.41c-.13,2.49-1.15,2.81-2,2.81a1.59,1.59,0,0,1-1.75-1.23c-.17-.54-.25-1.06-.25-7.71s.08-7.17.25-7.71A1.6,1.6,0,0,1,6.39,34Z"/></g><path class="cls-4" d="M22,50.63h0a1.83,1.83,0,0,1-1.87,1.23,1.86,1.86,0,0,1-1.9-1.23C18,50,18,49.67,18,42.92s0-7.05.25-7.72A1.87,1.87,0,0,1,20.13,34,1.84,1.84,0,0,1,22,35.21c.21.66.24,1,.24,7.71s0,7-.24,7.71ZM20.13,30c-3.06,0-5.21,1.42-6,4-.39,1.16-.49,2.18-.49,8.9s.1,7.74.49,8.9c.84,2.58,3,4,6,4s5.17-1.42,6-4c.39-1.16.48-2.18.48-8.9s-.09-7.74-.48-8.9c-.85-2.58-3-4-6-4Z"/><path class="cls-4" d="M41.9,30.35H39.21a.56.56,0,0,0-.58.57V47.06L34.29,30.87a.66.66,0,0,0-.71-.52H29.73a.55.55,0,0,0-.58.57v24a.56.56,0,0,0,.58.58h2.68a.56.56,0,0,0,.58-.58V38.61L37.59,55a.66.66,0,0,0,.71.52h3.6a.56.56,0,0,0,.58-.58v-24a.55.55,0,0,0-.58-.57Z"/><path class="cls-4" d="M54.15,42.92c0,4.81-.13,6.08-.42,7a2.24,2.24,0,0,1-2.42,1.64H49.75V34.3h1.56a2.24,2.24,0,0,1,2.42,1.63c.29.91.42,2.18.42,7ZM51.71,30.35H46a.55.55,0,0,0-.58.57v24a.56.56,0,0,0,.58.58h5.7c3.27,0,5.3-1.34,6.21-4.11.42-1.31.62-2.91.62-8.46s-.2-7.15-.62-8.46C57,31.69,55,30.35,51.71,30.35Z"/><path class="cls-4" d="M65.26,35.2A1.87,1.87,0,0,1,67.16,34,1.84,1.84,0,0,1,69,35.21c.21.66.24,1,.24,7.71s0,7-.24,7.71h0a1.83,1.83,0,0,1-1.87,1.23,1.86,1.86,0,0,1-1.9-1.23c-.21-.66-.25-1-.25-7.71s0-7.05.25-7.72ZM67.16,30C64.1,30,62,31.44,61.1,34c-.38,1.16-.48,2.18-.48,8.9s.1,7.74.48,8.9c.85,2.58,3,4,6.06,4s5.17-1.42,6-4c.38-1.16.48-2.18.48-8.9s-.1-7.74-.48-8.9c-.85-2.58-3-4-6-4Z"/><path class="cls-4" d="M80.49,41.5V34.3h1.28c1.84,0,2.91.59,2.91,3.6,0,2.7-.73,3.61-2.91,3.61H80.49Zm5.61,2.82C88,43.15,89,41,89,37.9c0-5.15-2.31-7.55-7.27-7.55h-5a.55.55,0,0,0-.57.57v24a.55.55,0,0,0,.57.58h3.17a.55.55,0,0,0,.57-.58V45.39h1.7l3,9.71a.58.58,0,0,0,.6.39h3.38a.41.41,0,0,0,.35-.18.5.5,0,0,0,0-.46L86.1,44.32Z"/><path class="cls-4" d="M97.51,34c.88,0,1.91.32,2,2.81a.53.53,0,0,0,.18.42.51.51,0,0,0,.47.11l2.94-.5a.55.55,0,0,0,.43-.67c-.21-4-2.35-6.12-6.17-6.12-3,0-5,1.36-5.8,3.93-.35,1.07-.49,2.18-.49,9s.14,7.9.49,9c.83,2.57,2.83,3.93,5.8,3.93,3.82,0,6-2.12,6.17-6.12a.54.54,0,0,0-.43-.67l-2.94-.51a.54.54,0,0,0-.47.12.51.51,0,0,0-.18.41c-.13,2.49-1.16,2.81-2,2.81a1.59,1.59,0,0,1-1.76-1.23c-.17-.54-.25-1.06-.25-7.71s.08-7.17.25-7.71A1.6,1.6,0,0,1,97.51,34Z"/><path class="cls-4" d="M115.86,30.35H105.72a.55.55,0,0,0-.58.57v24a.56.56,0,0,0,.58.58h10.14a.56.56,0,0,0,.58-.58V52.12a.56.56,0,0,0-.58-.58h-6.4V44.77H115a.56.56,0,0,0,.58-.58v-2.8a.57.57,0,0,0-.58-.58h-5.53V34.3h6.4a.56.56,0,0,0,.58-.58v-2.8a.55.55,0,0,0-.58-.57Z"/><g class="cls-3"><path class="cls-4" d="M129.56,30.35H117.68a.55.55,0,0,0-.58.57v2.8a.56.56,0,0,0,.58.58h3.78V54.91a.56.56,0,0,0,.58.58h3.16a.56.56,0,0,0,.58-.58V34.3h3.78a.56.56,0,0,0,.58-.58v-2.8a.55.55,0,0,0-.58-.57Z"/><path class="cls-4" d="M12,19,9.08,18.5a.53.53,0,0,0-.65.53c-.13,2.49-1.15,2.81-2,2.81a1.59,1.59,0,0,1-1.75-1.23c-.17-.54-.25-1.06-.25-7.71s.08-7.17.25-7.71A1.6,1.6,0,0,1,6.39,4c.89,0,1.91.32,2,2.81a.56.56,0,0,0,.18.42.55.55,0,0,0,.47.12L12,6.79a.55.55,0,0,0,.43-.67C12.24,2.12,10.11,0,6.28,0c-3,0-5,1.36-5.8,3.93C.14,5,0,6.11,0,12.9s.14,7.9.48,9c.83,2.57,2.84,3.93,5.8,3.93,3.83,0,6-2.12,6.18-6.12A.54.54,0,0,0,12,19Z"/></g><path class="cls-4" d="M21.33,16.43H18.18l1.6-8.14,1.55,8.14ZM21.94.87a.6.6,0,0,0-.61-.54h-3a.64.64,0,0,0-.61.51l-5.35,24a.51.51,0,0,0,.11.44.5.5,0,0,0,.4.17h3.09a.58.58,0,0,0,.61-.53l.94-4.81H22l.94,4.8a.58.58,0,0,0,.61.54h3.09a.5.5,0,0,0,.4-.17.49.49,0,0,0,.1-.45L21.94.87Z"/><path class="cls-4" d="M44.92.33H41.79A.7.7,0,0,0,41,.85L37.14,14.31,33.17.85a.72.72,0,0,0-.79-.52H29.22a.56.56,0,0,0-.58.58v24a.56.56,0,0,0,.58.58H32a.55.55,0,0,0,.57-.58V10l3,10.53a.68.68,0,0,0,.68.51h1.6a.7.7,0,0,0,.68-.52l3-10.52V24.89a.56.56,0,0,0,.58.58h2.8a.56.56,0,0,0,.58-.58V.91a.56.56,0,0,0-.58-.58Z"/><path class="cls-4" d="M56.92,8.14c0,3.24-1,3.85-2.92,3.85H52.76V4.29H54c1.89,0,2.92.62,2.92,3.86ZM54,.33H49a.55.55,0,0,0-.57.58v24a.55.55,0,0,0,.57.58h3.17a.55.55,0,0,0,.57-.58V16H54c4.87,0,7.23-2.56,7.23-7.81S58.94.33,54,.33Z"/><path class="cls-4" d="M75.56.33H72.39a.55.55,0,0,0-.57.58V19.48c0,1.5-.75,2.36-2,2.36S67.7,21,67.7,19.48V.91a.56.56,0,0,0-.58-.58H64a.56.56,0,0,0-.58.58V19c0,4.34,2.33,6.83,6.4,6.83s6.35-2.43,6.35-6.83V.91a.55.55,0,0,0-.57-.58Z"/><path class="cls-4" d="M86.54,10.74l-1.49-.58c-1.89-.74-2.27-1.33-2.27-3.55,0-1.91.63-2.76,2-2.76s2,.91,2.11,2.94a.5.5,0,0,0,.18.39.58.58,0,0,0,.47.12l2.91-.44h0A.62.62,0,0,0,91,6.24C90.76,2,88.71,0,84.71,0S78.5,2.29,78.5,6.79c0,4,1.16,5.84,4.57,7.18l1.49.58c1.85.74,2.3,1.54,2.3,4.09,0,2.76-.81,3.31-2.11,3.31-1.57,0-2.23-1-2.33-3.42a.53.53,0,0,0-.18-.42.58.58,0,0,0-.47-.12l-3,.51a.55.55,0,0,0-.47.62c.11,4.43,2.26,6.68,6.39,6.68,4.52,0,6.54-2.35,6.54-7.63,0-4.14-1.21-6.08-4.64-7.43Z"/></svg>