<?xml version="1.0" encoding="utf-8"?>
<!-- Generator: Adobe Illustrator 16.0.0, SVG Export Plug-In . SVG Version: 6.00 Build 0)  -->
<!DOCTYPE svg PUBLIC "-//W3C//DTD SVG 1.1//EN" "http://www.w3.org/Graphics/SVG/1.1/DTD/svg11.dtd">
<svg version="1.1" id="Calque_1" xmlns="http://www.w3.org/2000/svg" xmlns:xlink="http://www.w3.org/1999/xlink" x="0px" y="0px"
	 width="204.917px" height="205.021px" viewBox="0 0 204.917 205.021" enable-background="new 0 0 204.917 205.021"
	 xml:space="preserve">
<g>
	<path fill="#1B181C" d="M98.097,0.597c-1.839-0.115-3.665-0.172-5.479-0.174C67.311,0.394,44.388,11.171,24.415,32.521
		C6.255,51.931,0.151,67.55,0.205,86.413c0.028,10.09,1.82,21.107,4.471,34.129c4.984,24.486,19.521,48.127,39.879,64.863
		c15.589,12.811,32.975,19.355,51.295,19.477c9.495,0.063,19.239-1.6,29.116-5.008c31.893-11.01,62.398-42.525,74.19-76.641
		c3.73-10.799,5.543-21.303,5.503-31.305c-0.094-24.438-11.258-45.855-32.587-61.17C146.199,12.175,121.311,2.028,98.097,0.597z"/>
	<g>
		<path fill="#FFFFFF" d="M61.685,102.981h-7.013l-0.007,0.199c-0.056,1.361-0.866,13.291-11.54,13.291
			c-9.54,0-14.381-8.549-14.39-25.412c0.009-16.863,4.851-25.414,14.39-25.414c10.859,0,11.517,12.748,11.54,13.291l0.007,0.197
			h7.013c0.648,0,1.277-0.266,1.728-0.729c0.432-0.445,0.655-1.02,0.625-1.617c-0.146-3.309-1.843-19.813-21.012-19.813
			c-15.491,0-23.679,11.771-23.679,34.047c0,22.322,8.188,34.119,23.679,34.119c18.45,0,20.744-15.072,21.009-19.693
			c0.044-0.637-0.174-1.25-0.62-1.721C62.966,103.253,62.333,102.981,61.685,102.981z"/>
		<path fill="#FFFFFF" d="M170.652,87.007l0.002,0.002l-6.041-2.635c-5.809-2.553-7.868-5.035-7.868-9.49
			c0-5.811,4.25-9.715,10.575-9.715c3.738,0,6.807,0.768,10.552,4.582l0.204,0.209l3.224-2.949c1.866-1.732,1.326-3.293,0.547-4.297
			c-3.144-3.709-8.191-5.746-14.219-5.746c-11.625,0-20.061,7.582-20.061,18.031c0,10.273,6.473,14.568,13.468,17.678l6.163,2.752
			c6.193,2.777,9.143,5.146,9.143,11.104c0,8.129-7.344,10.297-11.683,10.297c-3.733,0-7.89-0.799-12.996-6.584l-0.199-0.229
			l-3.358,2.949c-1.728,1.52-1.742,2.822-0.059,4.986c4.623,5.943,11.399,7.189,16.271,7.189c10.535,0,21.202-6.471,21.202-18.836
			C185.519,95.599,179.576,90.849,170.652,87.007z"/>
		<path fill="#FFFFFF" d="M111.095,76.478c0-10.523-8.526-19.439-19.055-19.439c-4.951,0-9.459,1.889-12.848,4.984v-3.617h-6.34
			c-1.908,0-2.638,1.246-2.638,2.68v61.408c0,1.729,1.055,2.652,2.608,2.652h6.341c0,0,0-48.293,0-48.295
			c0-6.344,5.147-11.488,11.489-11.488c6.344,0,11.489,5.145,11.489,11.488c0,0.002,0,48.303,0,48.303h6.299
			c1.747,0,2.653-0.969,2.653-2.641C111.095,122.513,111.095,76.538,111.095,76.478z"/>
		<path fill="#FFFFFF" d="M147.45,61.63c0.331-0.412,0.535-0.928,0.535-1.494c0-1.057-0.688-1.943-1.637-2.266
			c-1.834-0.615-3.787-0.951-5.818-0.951c-4.951,0-9.46,1.887-12.848,4.982v-3.615h-6.34c-1.91,0-2.641,1.246-2.641,2.68v61.408
			c0,1.729,1.059,2.65,2.613,2.65h6.339c0,0,0-48.291,0-48.293c0-6.346,5.145-11.49,11.491-11.49c1.662,0,3.237,0.361,4.663,0.996
			l3.662-4.596L147.45,61.63z"/>
	</g>
</g>
</svg>
