<svg id="Calque_1" data-name="Calque 1" xmlns="http://www.w3.org/2000/svg" viewBox="0 0 962.58 600.52"><defs><style>.cls-1{isolation:isolate;}</style></defs><title>irht_logo</title><g id="LOGO"><path d="M49.88,335.9H3.28V0h46.6Z"/><path d="M361.38,309.7a126.17,126.17,0,0,1-3.1-28.7V251.7q0-30-11.2-50.4t-36.3-29q22.8-11.1,35-30.7c8.1-13.1,12.1-28.4,12.1-45.9q0-46.05-26.1-70.8T258,.3h-57.7V35.8h57.6c17.8,0,31.1,5.3,39.9,16S311,77.4,311,96.6c0,18.8-4.5,33.3-13.5,43.6s-22.9,15.4-41.9,15.4h-55.4v35.5h63.4c14.9,0,26.6,5.5,35.2,16.4s12.8,25.8,12.8,44.6v28.4a235.56,235.56,0,0,0,2.2,32.5c1.5,10.3,4.8,17.9,10,23H372v-5.3C367,325.5,363.48,318.5,361.38,309.7Z"/><polygon points="591.98 0 591.98 152 463.28 152 463.28 187.6 591.98 187.6 591.98 335.9 638.58 335.9 638.58 0 591.98 0"/><path d="M962.58,35.5h-86.3V335.8h-46.8V35.5h-85.8V0h218.9Z"/></g><g class="cls-1"><g class="cls-1"><path d="M3.87,482.8V415.12H14V482.8Z"/><path d="M70.78,482.8h-10V451.32q0-5.93-2.19-8.84t-6.95-2.92q-6.35,0-9.28,4.07t-2.93,13.66V482.8h-10V431.6h7.83l1.4,6.71h.51a14.35,14.35,0,0,1,6-5.65,19,19,0,0,1,8.68-2q16.93,0,16.93,18.75Z"/><path d="M116.29,468.22q0,7.5-5,11.5t-14.38,4q-9.39,0-15.1-3.1v-9.39q8.29,4.15,15.44,4.16,9.24,0,9.23-6.06a5.06,5.06,0,0,0-1-3.24,12.18,12.18,0,0,0-3.36-2.69,58.34,58.34,0,0,0-6.5-3.15q-8.13-3.42-11-6.85a13.37,13.37,0,0,1-2.87-8.89,12,12,0,0,1,4.87-10.2q4.88-3.65,13.25-3.64a34.91,34.91,0,0,1,15.69,3.66l-3.23,8.19q-7.61-3.42-12.8-3.42-7.92,0-7.91,4.9a5,5,0,0,0,2.06,4.08c1.38,1.11,4.37,2.64,9,4.58a40.1,40.1,0,0,1,8.46,4.49,13.12,13.12,0,0,1,3.91,4.7A14.65,14.65,0,0,1,116.29,468.22Z"/><path d="M144.62,474.93a22.51,22.51,0,0,0,7.31-1.25v8.19a18.35,18.35,0,0,1-4.27,1.32,26.72,26.72,0,0,1-5.42.53q-14.2,0-14.21-16.29V439.84h-6.42V435l6.89-4,3.4-10.83h6.17V431.6h13.4v8.24h-13.4v27.4c0,2.63.6,4.56,1.81,5.81A6.27,6.27,0,0,0,144.62,474.93Z"/><path d="M160.74,418a6.34,6.34,0,0,1,1.47-4.49A5.44,5.44,0,0,1,166.4,412a5.34,5.34,0,0,1,4.1,1.57A6.34,6.34,0,0,1,172,418a6.22,6.22,0,0,1-1.47,4.38,5.32,5.32,0,0,1-4.1,1.6,5.42,5.42,0,0,1-4.19-1.6A6.22,6.22,0,0,1,160.74,418Zm10.59,64.77h-10V431.6h10Z"/><path d="M203.15,474.93a22.6,22.6,0,0,0,7.31-1.25v8.19a18.35,18.35,0,0,1-4.27,1.32,26.81,26.81,0,0,1-5.43.53q-14.2,0-14.2-16.29V439.84h-6.42V435l6.89-4,3.4-10.83h6.17V431.6H210v8.24H196.6v27.4c0,2.63.6,4.56,1.8,5.81A6.31,6.31,0,0,0,203.15,474.93Z"/><path d="M253,482.8l-1.4-6.71h-.51a14.67,14.67,0,0,1-5.94,5.6,18.46,18.46,0,0,1-8.78,2q-8.55,0-12.76-4.62t-4.21-14V431.6h10.08v31.57c0,3.92.73,6.86,2.21,8.82s3.79,2.94,6.93,2.94q6.3,0,9.25-4.1t3-13.72V431.6h10v51.2Z"/><path d="M292.68,474.93a22.62,22.62,0,0,0,7.32-1.25v8.19a18.45,18.45,0,0,1-4.28,1.32,26.72,26.72,0,0,1-5.42.53q-14.21,0-14.21-16.29V439.84h-6.42V435l6.89-4,3.4-10.83h6.17V431.6h13.4v8.24h-13.4v27.4c0,2.63.6,4.56,1.81,5.81A6.3,6.3,0,0,0,292.68,474.93Z"/><path d="M347.89,483.72a15.91,15.91,0,0,1-13.74-6.94q-4.93-6.94-4.93-19.49t5-19.6a16,16,0,0,1,13.84-7q9.27,0,14.12,7.45h.51a71,71,0,0,1-.72-8.7V410.77h10v72h-7.83l-1.74-6.71H362Q357.17,483.73,347.89,483.72Zm2.68-8.79q6.17,0,9-3.77t2.89-12.25v-1.53q0-9.67-2.89-13.75t-9.06-4.07a9,9,0,0,0-8.13,4.65q-2.85,4.65-2.85,13.27t2.77,13A9.11,9.11,0,0,0,350.57,474.93Z"/><path d="M406.85,483.72q-11,0-17.17-7t-6.19-19.19q0-12.56,5.75-19.72T405,430.67q9.32,0,14.71,6.16t5.41,16.94v5.88H393.79q.21,7.46,3.7,11.46t9.82,4a33.58,33.58,0,0,0,7.77-.85,38.59,38.59,0,0,0,7.72-2.85v8.84a29.05,29.05,0,0,1-7.41,2.69A42.06,42.06,0,0,1,406.85,483.72ZM405,438.91a9.65,9.65,0,0,0-7.64,3.29c-1.91,2.19-3.06,5.38-3.42,9.58h21.35q-.09-6.34-2.81-9.6A9.21,9.21,0,0,0,405,438.91Z"/><path d="M483,430.67a22.73,22.73,0,0,1,5,.46l-1,10.14a17.44,17.44,0,0,0-4.42-.55,12.29,12.29,0,0,0-9.72,4.26q-3.72,4.26-3.72,11.06V482.8h-10V431.6H467l1.32,9h.51a19.76,19.76,0,0,1,6.1-7.26A13.69,13.69,0,0,1,483,430.67Z"/><path d="M517.22,483.72q-11,0-17.16-7t-6.19-19.19q0-12.56,5.74-19.72t15.78-7.18q9.32,0,14.72,6.16t5.4,16.94v5.88H504.16q.22,7.46,3.7,11.46t9.83,4a33.43,33.43,0,0,0,7.76-.85,38.15,38.15,0,0,0,7.72-2.85v8.84a29,29,0,0,1-7.4,2.69A42.09,42.09,0,0,1,517.22,483.72Zm-1.83-44.81a9.63,9.63,0,0,0-7.63,3.29q-2.86,3.29-3.43,9.58h21.36q-.09-6.34-2.81-9.6A9.23,9.23,0,0,0,515.39,438.91Z"/><path d="M565.84,483.72q-10.68,0-16.23-6.78t-5.55-19.46q0-12.92,5.81-19.86t16.78-6.95a29.25,29.25,0,0,1,13.4,3l-3,8.75q-6.35-2.69-10.47-2.69-12.19,0-12.2,17.64,0,8.61,3,12.94c2,2.89,5,4.33,8.91,4.33A23.94,23.94,0,0,0,578.94,471v9.49a18.78,18.78,0,0,1-5.72,2.45A31.34,31.34,0,0,1,565.84,483.72Z"/><path d="M631.39,482.8h-10V451.32q0-5.93-2.19-8.84t-7-2.92q-6.29,0-9.25,4.1t-3,13.72V482.8H590v-72h10v18.28a90.21,90.21,0,0,1-.52,9.4h.64a14.46,14.46,0,0,1,5.68-5.74,17.07,17.07,0,0,1,8.49-2q17.1,0,17.1,18.75Z"/><path d="M665.84,483.72q-11,0-17.16-7t-6.19-19.19q0-12.56,5.74-19.72T664,430.67q9.32,0,14.72,6.16t5.4,16.94v5.88H652.78q.21,7.46,3.7,11.46t9.83,4a33.49,33.49,0,0,0,7.76-.85,38.15,38.15,0,0,0,7.72-2.85v8.84a29.12,29.12,0,0,1-7.4,2.69A42.23,42.23,0,0,1,665.84,483.72ZM664,438.91a9.62,9.62,0,0,0-7.63,3.29q-2.88,3.29-3.43,9.58H674.3q-.07-6.34-2.8-9.6A9.23,9.23,0,0,0,664,438.91Z"/><path d="M719.35,430.67a22.64,22.64,0,0,1,5,.46l-1,10.14a17.52,17.52,0,0,0-4.43-.55A12.3,12.3,0,0,0,709.2,445q-3.72,4.26-3.72,11.06V482.8h-10V431.6h7.82l1.32,9h.51a19.79,19.79,0,0,1,6.11-7.26A13.67,13.67,0,0,1,719.35,430.67Z"/><path d="M752,483.72q-10.68,0-16.23-6.78t-5.55-19.46q0-12.92,5.8-19.86t16.78-6.95a29.22,29.22,0,0,1,13.4,3l-3,8.75q-6.33-2.69-10.46-2.69-12.21,0-12.21,17.64,0,8.61,3,12.94a10.19,10.19,0,0,0,8.91,4.33A24,24,0,0,0,765.12,471v9.49A18.89,18.89,0,0,1,759.4,483,31.34,31.34,0,0,1,752,483.72Z"/><path d="M817.56,482.8h-10V451.32q0-5.93-2.19-8.84t-7-2.92q-6.3,0-9.25,4.1t-3,13.72V482.8h-10v-72h10v18.28a92.9,92.9,0,0,1-.51,9.4h.64a14.39,14.39,0,0,1,5.68-5.74,17,17,0,0,1,8.48-2q17.1,0,17.1,18.75Z"/><path d="M852,483.72q-11,0-17.17-7t-6.19-19.19q0-12.56,5.75-19.72t15.78-7.18q9.31,0,14.71,6.16t5.41,16.94v5.88H839q.21,7.46,3.7,11.46t9.82,4a33.58,33.58,0,0,0,7.77-.85,38.59,38.59,0,0,0,7.72-2.85v8.84a29.05,29.05,0,0,1-7.41,2.69A42.06,42.06,0,0,1,852,483.72Zm-1.83-44.81a9.65,9.65,0,0,0-7.64,3.29c-1.91,2.19-3.06,5.38-3.42,9.58h21.35q-.09-6.34-2.81-9.6A9.21,9.21,0,0,0,850.19,438.91Z"/></g><g class="cls-1"><path d="M23.35,600.52q-11,0-17.16-7T0,574.37q0-12.55,5.74-19.72t15.78-7.18q9.32,0,14.72,6.16t5.4,16.94v5.88H10.29q.23,7.45,3.7,11.46t9.83,4a33.43,33.43,0,0,0,7.76-.85,38.15,38.15,0,0,0,7.72-2.85v8.84a29,29,0,0,1-7.4,2.69A42.09,42.09,0,0,1,23.35,600.52Zm-1.83-44.81A9.63,9.63,0,0,0,13.89,559q-2.88,3.29-3.43,9.58H31.82q-.09-6.35-2.81-9.6A9.23,9.23,0,0,0,21.52,555.71Z"/><path d="M70.52,591.73a22.62,22.62,0,0,0,7.32-1.25v8.19A18.45,18.45,0,0,1,73.56,600a26.72,26.72,0,0,1-5.42.53q-14.2,0-14.21-16.29V556.64H47.51v-4.82l6.89-4L57.8,537H64V548.4h13.4v8.24H64V584c0,2.63.6,4.56,1.81,5.81A6.29,6.29,0,0,0,70.52,591.73Z"/><path d="M125.73,600.52A15.91,15.91,0,0,1,112,593.58q-4.93-6.95-4.93-19.49t5-19.6a16,16,0,0,1,13.84-7q9.27,0,14.12,7.45h.52a69.45,69.45,0,0,1-.73-8.7V527.57h10v72H142l-1.74-6.71h-.47Q135,600.53,125.73,600.52Zm2.68-8.79q6.17,0,9-3.77t2.89-12.25v-1.53q0-9.67-2.89-13.75t-9.06-4.07A9,9,0,0,0,120.2,561q-2.85,4.65-2.85,13.27t2.77,13A9.11,9.11,0,0,0,128.41,591.73Z"/><path d="M172.14,531.92l.64,1a142.65,142.65,0,0,1-7.49,22.17h-7.23q2.94-13.38,4.25-23.19Z"/><path d="M222.33,599.6h-10V568.12q0-5.93-2.19-8.84t-6.95-2.92q-6.3,0-9.25,4.1t-3,13.72V599.6h-10v-72h10v18.28a92.9,92.9,0,0,1-.51,9.4h.64a14.43,14.43,0,0,1,5.67-5.74,17.1,17.1,0,0,1,8.49-2q17.1,0,17.1,18.75Z"/><path d="M235.64,534.83a6.34,6.34,0,0,1,1.47-4.49,5.44,5.44,0,0,1,4.19-1.57,5.31,5.31,0,0,1,4.1,1.57,6.34,6.34,0,0,1,1.47,4.49,6.22,6.22,0,0,1-1.47,4.38,5.29,5.29,0,0,1-4.1,1.6,5.42,5.42,0,0,1-4.19-1.6A6.22,6.22,0,0,1,235.64,534.83Zm10.59,64.77h-10V548.4h10Z"/><path d="M292.13,585q0,7.5-5,11.5t-14.38,4q-9.39,0-15.1-3.1V588q8.3,4.15,15.44,4.16,9.24,0,9.23-6.06a5.06,5.06,0,0,0-1-3.24,12.18,12.18,0,0,0-3.36-2.69,58.34,58.34,0,0,0-6.5-3.15q-8.13-3.42-11-6.85a13.37,13.37,0,0,1-2.87-8.89,12,12,0,0,1,4.87-10.2q4.88-3.65,13.25-3.64a34.91,34.91,0,0,1,15.69,3.66l-3.23,8.19q-7.61-3.42-12.8-3.42-7.92,0-7.91,4.9a5,5,0,0,0,2.06,4.08q2.06,1.67,9,4.58a40.1,40.1,0,0,1,8.46,4.49,13.12,13.12,0,0,1,3.91,4.7A14.65,14.65,0,0,1,292.13,585Z"/><path d="M320.46,591.73a22.56,22.56,0,0,0,7.31-1.25v8.19A18.35,18.35,0,0,1,323.5,600a26.81,26.81,0,0,1-5.43.53q-14.2,0-14.2-16.29V556.64h-6.42v-4.82l6.89-4,3.4-10.83h6.17V548.4h13.4v8.24h-13.4V584c0,2.63.6,4.56,1.8,5.81A6.31,6.31,0,0,0,320.46,591.73Z"/><path d="M378.9,573.91q0,12.54-5.91,19.58t-16.46,7a21.17,21.17,0,0,1-11.66-3.24,20.83,20.83,0,0,1-7.78-9.3,34,34,0,0,1-2.72-14.07q0-12.46,5.87-19.45t16.54-7q10.22,0,16.17,7.15T378.9,573.91Zm-34.24,0q0,17.73,12,17.73t11.91-17.73q0-17.55-12-17.55c-4.19,0-7.24,1.51-9.12,4.54S344.66,568.26,344.66,573.91Z"/><path d="M389.79,534.83a6.34,6.34,0,0,1,1.47-4.49,5.42,5.42,0,0,1,4.19-1.57,5.34,5.34,0,0,1,4.1,1.57,6.34,6.34,0,0,1,1.47,4.49,6.22,6.22,0,0,1-1.47,4.38,5.32,5.32,0,0,1-4.1,1.6,5.4,5.4,0,0,1-4.19-1.6A6.22,6.22,0,0,1,389.79,534.83Zm10.59,64.77h-10V548.4h10Z"/><path d="M438.53,547.47a22.67,22.67,0,0,1,5,.46l-1,10.14a17.44,17.44,0,0,0-4.42-.55,12.29,12.29,0,0,0-9.72,4.26q-3.72,4.26-3.72,11.06V599.6h-10V548.4h7.83l1.32,9h.51a19.76,19.76,0,0,1,6.1-7.26A13.69,13.69,0,0,1,438.53,547.47Z"/><path d="M472.77,600.52q-11,0-17.16-7t-6.19-19.19q0-12.55,5.75-19.72T471,547.47q9.32,0,14.71,6.16t5.4,16.94v5.88H459.72q.21,7.45,3.7,11.46t9.82,4a33.58,33.58,0,0,0,7.77-.85,38.59,38.59,0,0,0,7.72-2.85v8.84a29.05,29.05,0,0,1-7.41,2.69A42.09,42.09,0,0,1,472.77,600.52ZM471,555.71a9.65,9.65,0,0,0-7.64,3.29c-1.91,2.19-3.06,5.38-3.42,9.58h21.35q-.09-6.35-2.81-9.6A9.21,9.21,0,0,0,471,555.71Z"/><path d="M540.92,600.52a15.91,15.91,0,0,1-13.74-6.94q-4.93-6.95-4.94-19.49t5-19.6a16.06,16.06,0,0,1,13.85-7q9.27,0,14.12,7.45h.51a69.45,69.45,0,0,1-.73-8.7V527.57h10v72h-7.82l-1.75-6.71H555Q550.19,600.53,540.92,600.52Zm2.68-8.79q6.17,0,9-3.77t2.89-12.25v-1.53q0-9.67-2.89-13.75t-9.06-4.07a9,9,0,0,0-8.12,4.65q-2.85,4.65-2.85,13.27t2.76,13A9.12,9.12,0,0,0,543.6,591.73Z"/><path d="M599.87,600.52q-11,0-17.16-7t-6.19-19.19q0-12.55,5.74-19.72T598,547.47q9.32,0,14.72,6.16t5.4,16.94v5.88H586.81q.21,7.45,3.7,11.46t9.83,4a33.56,33.56,0,0,0,7.76-.85,38.37,38.37,0,0,0,7.72-2.85v8.84a29.12,29.12,0,0,1-7.4,2.69A42.23,42.23,0,0,1,599.87,600.52ZM598,555.71A9.65,9.65,0,0,0,590.4,559q-2.86,3.29-3.42,9.58h21.35q-.08-6.35-2.8-9.6A9.23,9.23,0,0,0,598,555.71Z"/><path d="M661.12,585q0,7.5-5,11.5t-14.38,4q-9.4,0-15.1-3.1V588q8.29,4.15,15.44,4.16,9.24,0,9.23-6.06a5.06,5.06,0,0,0-1-3.24,12.18,12.18,0,0,0-3.36-2.69,57.77,57.77,0,0,0-6.51-3.15q-8.11-3.42-11-6.85a13.32,13.32,0,0,1-2.87-8.89,12,12,0,0,1,4.87-10.2q4.86-3.65,13.25-3.64a34.91,34.91,0,0,1,15.69,3.66l-3.23,8.19q-7.62-3.42-12.8-3.42-7.92,0-7.92,4.9a5.06,5.06,0,0,0,2.07,4.08q2.06,1.67,9,4.58a40,40,0,0,1,8.47,4.49,13.12,13.12,0,0,1,3.91,4.7A14.65,14.65,0,0,1,661.12,585Z"/><path d="M712.07,591.73a22.62,22.62,0,0,0,7.32-1.25v8.19a18.51,18.51,0,0,1-4.27,1.32,26.89,26.89,0,0,1-5.43.53q-14.21,0-14.2-16.29V556.64h-6.43v-4.82l6.89-4L699.36,537h6.16V548.4h13.4v8.24h-13.4V584c0,2.63.61,4.56,1.81,5.81A6.3,6.3,0,0,0,712.07,591.73Z"/><path d="M749.34,600.52q-11,0-17.17-7T726,574.37q0-12.55,5.75-19.72t15.78-7.18q9.32,0,14.71,6.16t5.41,16.94v5.88H736.28q.21,7.45,3.7,11.46t9.82,4a33.58,33.58,0,0,0,7.77-.85,38.59,38.59,0,0,0,7.72-2.85v8.84a29.05,29.05,0,0,1-7.41,2.69A42.06,42.06,0,0,1,749.34,600.52Zm-1.83-44.81a9.65,9.65,0,0,0-7.64,3.29c-1.91,2.19-3.06,5.38-3.42,9.58H757.8q-.09-6.35-2.81-9.6A9.21,9.21,0,0,0,747.51,555.71Z"/><path d="M789.45,573.44l-15.78-25h11.39l10.72,17.91,10.81-17.91H817.9l-15.82,25,16.63,26.16H807.4l-11.62-19.17L784.21,599.6H772.9Z"/><path d="M844.49,591.73a22.6,22.6,0,0,0,7.31-1.25v8.19a18.35,18.35,0,0,1-4.27,1.32,26.81,26.81,0,0,1-5.43.53q-14.21,0-14.2-16.29V556.64h-6.42v-4.82l6.89-4,3.4-10.83h6.17V548.4h13.39v8.24H837.94V584c0,2.63.6,4.56,1.8,5.81A6.31,6.31,0,0,0,844.49,591.73Z"/><path d="M881.75,600.52q-11,0-17.17-7t-6.18-19.19q0-12.55,5.74-19.72t15.78-7.18q9.32,0,14.71,6.16T900,570.57v5.88H868.69q.21,7.45,3.7,11.46t9.82,4a33.58,33.58,0,0,0,7.77-.85,38.37,38.37,0,0,0,7.72-2.85v8.84a29.12,29.12,0,0,1-7.4,2.69A42.23,42.23,0,0,1,881.75,600.52Zm-1.83-44.81a9.65,9.65,0,0,0-7.64,3.29q-2.87,3.29-3.42,9.58h21.35q-.09-6.35-2.81-9.6A9.21,9.21,0,0,0,879.92,555.71Z"/><path d="M943,585q0,7.5-5,11.5t-14.38,4q-9.4,0-15.1-3.1V588q8.29,4.15,15.44,4.16,9.22,0,9.23-6.06a5.06,5.06,0,0,0-1-3.24,12.18,12.18,0,0,0-3.36-2.69,57.77,57.77,0,0,0-6.51-3.15q-8.12-3.42-11-6.85a13.32,13.32,0,0,1-2.87-8.89,12,12,0,0,1,4.87-10.2q4.86-3.65,13.25-3.64a34.94,34.94,0,0,1,15.69,3.66L939,559.32q-7.62-3.42-12.8-3.42-7.92,0-7.92,4.9a5.06,5.06,0,0,0,2.07,4.08q2.05,1.67,9,4.58a40,40,0,0,1,8.47,4.49,13.22,13.22,0,0,1,3.91,4.7A14.65,14.65,0,0,1,943,585Z"/></g></g></svg>